<?xml version="1.0" standalone="no"?>
<svg xmlns:xlink="http://www.w3.org/1999/xlink" id="wave" style="transform:rotate(180deg); transition: 0.3s" viewBox="0 0 1440 230" version="1.1" xmlns="http://www.w3.org/2000/svg"><defs><linearGradient id="sw-gradient-0" x1="0" x2="0" y1="1" y2="0"><stop stop-color="rgba(209.784, 209.784, 209.784, 1)" offset="0%"/><stop stop-color="rgba(117.422, 180.434, 255, 1)" offset="100%"/></linearGradient></defs><path style="transform:translate(0, 0px); opacity:1" fill="url(#sw-gradient-0)" d="M0,69L40,57.5C80,46,160,23,240,42.2C320,61,400,123,480,145.7C560,169,640,153,720,126.5C800,100,880,61,960,61.3C1040,61,1120,100,1200,126.5C1280,153,1360,169,1440,149.5C1520,130,1600,77,1680,53.7C1760,31,1840,38,1920,61.3C2000,84,2080,123,2160,115C2240,107,2320,54,2400,38.3C2480,23,2560,46,2640,80.5C2720,115,2800,161,2880,180.2C2960,199,3040,192,3120,180.2C3200,169,3280,153,3360,149.5C3440,146,3520,153,3600,157.2C3680,161,3760,161,3840,138C3920,115,4000,69,4080,46C4160,23,4240,23,4320,19.2C4400,15,4480,8,4560,30.7C4640,54,4720,107,4800,107.3C4880,107,4960,54,5040,34.5C5120,15,5200,31,5280,53.7C5360,77,5440,107,5520,130.3C5600,153,5680,169,5720,176.3L5760,184L5760,230L5720,230C5680,230,5600,230,5520,230C5440,230,5360,230,5280,230C5200,230,5120,230,5040,230C4960,230,4880,230,4800,230C4720,230,4640,230,4560,230C4480,230,4400,230,4320,230C4240,230,4160,230,4080,230C4000,230,3920,230,3840,230C3760,230,3680,230,3600,230C3520,230,3440,230,3360,230C3280,230,3200,230,3120,230C3040,230,2960,230,2880,230C2800,230,2720,230,2640,230C2560,230,2480,230,2400,230C2320,230,2240,230,2160,230C2080,230,2000,230,1920,230C1840,230,1760,230,1680,230C1600,230,1520,230,1440,230C1360,230,1280,230,1200,230C1120,230,1040,230,960,230C880,230,800,230,720,230C640,230,560,230,480,230C400,230,320,230,240,230C160,230,80,230,40,230L0,230Z"/></svg>